<svg width="16" height="17" viewBox="0 0 16 17" fill="none" xmlns="http://www.w3.org/2000/svg">
<path d="M8.72135 0.0030174L7.25535 1.76215e-05C3.91135 -0.00798238 1.00835 2.70902 0.985354 6.00002V9.79002C0.985354 10.58 0.885354 11.351 0.454354 12.008L0.167354 12.446C-0.269646 13.11 0.200354 14 0.985354 14H15.0154C15.8004 14 16.2694 13.11 15.8334 12.446L15.5464 12.008C15.1164 11.351 15.0154 10.579 15.0154 9.78902V6.00102C14.9754 2.70902 12.0654 0.0110174 8.72135 0.0030174ZM11.0004 14C11.0004 14.7957 10.6843 15.5587 10.1217 16.1213C9.55907 16.6839 8.796 17 8.00035 17C7.20471 17 6.44164 16.6839 5.87903 16.1213C5.31642 15.5587 5.00035 14.7957 5.00035 14" fill="#A3A3A6"/>
</svg>
