<svg width="17" height="17" viewBox="0 0 17 17" fill="none" xmlns="http://www.w3.org/2000/svg">
<g clip-path="url(#clip0_701_44914)">
<path d="M11.7834 14.4946V13.1733C11.7834 12.4725 11.4913 11.8003 10.9714 11.3048C10.4514 10.8092 9.74621 10.5308 9.0109 10.5308H3.46587C2.73056 10.5308 2.02536 10.8092 1.50541 11.3048C0.985463 11.8003 0.693359 12.4725 0.693359 13.1733V14.4946" stroke="white" stroke-linecap="round" stroke-linejoin="round"/>
<path d="M6.23833 7.88816C7.76955 7.88816 9.01084 6.70504 9.01084 5.24559C9.01084 3.78614 7.76955 2.60303 6.23833 2.60303C4.70712 2.60303 3.46582 3.78614 3.46582 5.24559C3.46582 6.70504 4.70712 7.88816 6.23833 7.88816Z" stroke="white" stroke-linecap="round" stroke-linejoin="round"/>
<path d="M15.9417 14.4947V13.1734C15.9412 12.5879 15.7368 12.0191 15.3604 11.5563C14.984 11.0936 14.4571 10.7631 13.8623 10.6167" stroke="white" stroke-linecap="round" stroke-linejoin="round"/>
<path d="M11.0898 2.68896C11.6862 2.8345 12.2148 3.16509 12.5923 3.6286C12.9698 4.09211 13.1747 4.66219 13.1747 5.24895C13.1747 5.83571 12.9698 6.40579 12.5923 6.8693C12.2148 7.33281 11.6862 7.6634 11.0898 7.80894" stroke="white" stroke-linecap="round" stroke-linejoin="round"/>
</g>
<defs>
<clipPath id="clip0_701_44914">
<rect width="16.6351" height="15.8554" fill="white" transform="translate(0 0.621094)"/>
</clipPath>
</defs>
</svg>
