<svg width="16" height="12" viewBox="0 0 16 12" fill="none" xmlns="http://www.w3.org/2000/svg">
<path d="M13.2654 0.995235C12.3092 0.535265 11.2842 0.195287 10.2124 0.00196665C10.2029 1.20537e-05 10.193 0.00127167 10.1841 0.0055713C10.1753 0.00987094 10.1679 0.0169979 10.163 0.0259651C10.0318 0.271949 9.88554 0.592595 9.78304 0.845911C8.64626 0.664748 7.49055 0.664748 6.35377 0.845911C6.2396 0.56517 6.11087 0.29143 5.96815 0.0259651C5.96331 0.0168875 5.956 0.00959932 5.94717 0.0050732C5.93835 0.000547074 5.92845 -0.00100181 5.91878 0.00063334C4.84756 0.193954 3.82259 0.533932 2.86574 0.994568C2.85751 0.998251 2.85053 1.00453 2.84574 1.01257C0.900799 4.06237 0.367689 7.03684 0.629556 9.97398C0.630285 9.98117 0.632379 9.98813 0.635709 9.99443C0.63904 10.0007 0.643539 10.0063 0.648931 10.0106C1.78414 10.8922 3.05032 11.5638 4.39445 11.9972C4.40382 12.0003 4.41384 12.0002 4.4232 11.9972C4.43257 11.9941 4.44084 11.988 4.44695 11.9798C4.73618 11.5673 4.99249 11.1295 5.21317 10.6713C5.21624 10.665 5.218 10.6581 5.21835 10.651C5.2187 10.644 5.21762 10.6369 5.21519 10.6304C5.21276 10.6238 5.20904 10.6179 5.20427 10.6129C5.1995 10.608 5.1938 10.6043 5.18755 10.6019C4.78381 10.4398 4.39263 10.2441 4.01758 10.0166C4.01084 10.0125 4.00517 10.0067 4.00106 9.99969C3.99695 9.99267 3.99454 9.98467 3.99404 9.97641C3.99355 9.96815 3.99498 9.95989 3.99822 9.95237C4.00145 9.94485 4.00639 9.9383 4.01258 9.93331C4.09133 9.87132 4.17008 9.80666 4.24508 9.74199C4.25183 9.73618 4.25996 9.73248 4.26857 9.7313C4.27717 9.73012 4.28592 9.73152 4.29383 9.73533C6.74813 10.9113 9.40618 10.9113 11.8317 9.73533C11.8397 9.73129 11.8485 9.72971 11.8572 9.73077C11.866 9.73184 11.8742 9.73549 11.8811 9.74133C11.9561 9.80666 12.0342 9.87132 12.1136 9.93331C12.1199 9.9382 12.1249 9.94466 12.1282 9.95211C12.1315 9.95957 12.1331 9.9678 12.1327 9.97605C12.1324 9.98431 12.1301 9.99234 12.1261 9.99942C12.1221 10.0065 12.1165 10.0124 12.1098 10.0166C11.7361 10.246 11.3474 10.4399 10.9393 10.6013C10.933 10.6037 10.9273 10.6075 10.9225 10.6125C10.9177 10.6175 10.914 10.6235 10.9116 10.6301C10.9092 10.6367 10.9081 10.6438 10.9084 10.6509C10.9088 10.658 10.9106 10.665 10.9136 10.6713C11.1386 11.1292 11.3961 11.5652 11.6792 11.9792C11.6851 11.9877 11.6933 11.994 11.7027 11.9974C11.7121 12.0007 11.7222 12.0009 11.7317 11.9978C13.0782 11.5656 14.3464 10.8938 15.4829 10.0106C15.4884 10.0065 15.4931 10.0012 15.4965 9.99495C15.5 9.98874 15.5021 9.98182 15.5029 9.97464C15.8154 6.57887 14.9791 3.6284 13.2848 1.0139C13.2807 1.0054 13.2738 0.99878 13.2654 0.995235ZM5.58004 8.18543C4.84131 8.18543 4.23195 7.47281 4.23195 6.59887C4.23195 5.72426 4.82944 5.0123 5.58004 5.0123C6.33627 5.0123 6.94 5.73026 6.92812 6.59887C6.92812 7.47348 6.33064 8.18543 5.58004 8.18543ZM10.5643 8.18543C9.82491 8.18543 9.21618 7.47281 9.21618 6.59887C9.21618 5.72426 9.81304 5.0123 10.5643 5.0123C11.3205 5.0123 11.9242 5.73026 11.9124 6.59887C11.9124 7.47348 11.3211 8.18543 10.5643 8.18543Z" fill="#A3A3A6"/>
</svg>
