<svg width="17" height="17" viewBox="0 0 17 17" fill="none" xmlns="http://www.w3.org/2000/svg">
<g clip-path="url(#clip0_701_44886)">
<path d="M8.31738 0.914551V15.4487" stroke="white" stroke-linecap="round" stroke-linejoin="round"/>
<path d="M11.7836 3.55713H6.58513C5.94173 3.55713 5.32468 3.80074 4.86972 4.23437C4.41477 4.668 4.15918 5.25613 4.15918 5.86937C4.15918 6.48262 4.41477 7.07075 4.86972 7.50438C5.32468 7.93801 5.94173 8.18162 6.58513 8.18162H10.0508C10.6942 8.18162 11.3112 8.42523 11.7662 8.85886C12.2211 9.29249 12.4767 9.88062 12.4767 10.4939C12.4767 11.1071 12.2211 11.6952 11.7662 12.1289C11.3112 12.5625 10.6942 12.8061 10.0508 12.8061H4.15918" stroke="white" stroke-linecap="round" stroke-linejoin="round"/>
</g>
<defs>
<clipPath id="clip0_701_44886">
<rect width="16.6351" height="15.8554" fill="white" transform="translate(0 0.253906)"/>
</clipPath>
</defs>
</svg>
