<svg width="34" height="34" viewBox="0 0 34 34" fill="none" xmlns="http://www.w3.org/2000/svg">
<path d="M10 0.5H24C29.2467 0.5 33.5 4.7533 33.5 10V24C33.5 29.2467 29.2467 33.5 24 33.5H10C4.75329 33.5 0.5 29.2467 0.5 24V10C0.5 4.75329 4.7533 0.5 10 0.5Z" fill="black" stroke="url(#paint0_linear_701_7192)"/>
<path d="M21 22.01V15H19V22.01H16L20 26L24 22.01H21ZM14 8L10 11.99H13V19H15V11.99H18L14 8Z" fill="url(#paint1_linear_701_7192)"/>
<defs>
<linearGradient id="paint0_linear_701_7192" x1="29.1483" y1="42.9381" x2="-0.0593518" y2="42.0809" gradientUnits="userSpaceOnUse">
<stop stop-color="#6D7784"/>
<stop offset="1" stop-color="#D3D6D9"/>
</linearGradient>
<linearGradient id="paint1_linear_701_7192" x1="22.0023" y1="30.732" x2="9.97147" y2="30.4573" gradientUnits="userSpaceOnUse">
<stop stop-color="#6D7784"/>
<stop offset="1" stop-color="#D3D6D9"/>
</linearGradient>
</defs>
</svg>
