<svg width="13" height="12" viewBox="0 0 13 12" fill="none" xmlns="http://www.w3.org/2000/svg">
<path fill-rule="evenodd" clip-rule="evenodd" d="M6.56738 0C3.25238 0 0.567383 2.75291 0.567383 6.15176C0.567383 8.87392 2.28488 11.1731 4.66988 11.9882C4.96988 12.0421 5.08238 11.8575 5.08238 11.696C5.08238 11.5499 5.07488 11.0655 5.07488 10.5503C3.56738 10.8348 3.17738 10.1735 3.05738 9.82744C2.98988 9.65058 2.69738 9.10461 2.44238 8.9585C2.23238 8.84316 1.93238 8.55864 2.43488 8.55095C2.90738 8.54326 3.24488 8.99695 3.35738 9.18151C3.89738 10.112 4.75988 9.85051 5.10488 9.68903C5.15738 9.28916 5.31488 9.02002 5.48738 8.86623C4.15238 8.71243 2.75738 8.18184 2.75738 5.8288C2.75738 5.15979 2.98988 4.60613 3.37238 4.17551C3.31238 4.02172 3.10238 3.39116 3.43238 2.54529C3.43238 2.54529 3.93488 2.38381 5.08238 3.17585C5.56238 3.03743 6.07238 2.96823 6.58238 2.96823C7.09238 2.96823 7.60238 3.03743 8.08238 3.17585C9.22988 2.37612 9.73238 2.54529 9.73238 2.54529C10.0624 3.39116 9.85238 4.02172 9.79238 4.17551C10.1749 4.60613 10.4074 5.1521 10.4074 5.8288C10.4074 8.18953 9.00488 8.71243 7.66988 8.86623C7.88738 9.05847 8.07488 9.42758 8.07488 10.0043C8.07488 10.8271 8.06738 11.4884 8.06738 11.696C8.06738 11.8575 8.17988 12.0498 8.47988 11.9882C9.67097 11.5759 10.706 10.7911 11.4392 9.74407C12.1725 8.69708 12.567 7.4407 12.5674 6.15176C12.5674 2.75291 9.88238 0 6.56738 0Z" fill="#A3A3A6"/>
</svg>
