<svg width="16" height="17" viewBox="0 0 16 17" fill="none" xmlns="http://www.w3.org/2000/svg">
<mask id="path-1-inside-1_701_44877" fill="white">
<path d="M9.64991 2.0847C9.51929 1.96502 9.34743 1.90035 9.17021 1.90419C8.99299 1.90803 8.82411 1.98008 8.6988 2.1053L1.11853 9.67694C1.05461 9.74071 1.0039 9.81644 0.969295 9.8998C0.934694 9.98316 0.916884 10.0725 0.916884 10.1628C0.916884 10.253 0.934694 10.3423 0.969295 10.4257C1.0039 10.5091 1.05461 10.5848 1.11853 10.6486L2.17966 11.7083C2.18309 11.7083 2.19112 11.7118 2.20716 11.7118C2.24154 11.7118 2.28737 11.6992 2.33092 11.6706C2.74972 11.3915 3.25241 11.266 3.75342 11.3155C4.25443 11.365 4.72279 11.5863 5.07879 11.9418C5.43478 12.2974 5.6564 12.7651 5.70593 13.2655C5.75545 13.7659 5.62982 14.2679 5.35042 14.6862C5.32526 14.7227 5.31096 14.7655 5.30917 14.8098C5.30917 14.8246 5.31146 14.8327 5.3126 14.8361L6.34852 15.8718C6.41361 15.937 6.49116 15.9884 6.57655 16.023C6.66193 16.0576 6.75342 16.0747 6.84556 16.0734C6.93771 16.072 7.02864 16.0521 7.11294 16.0149C7.19724 15.9777 7.2732 15.924 7.3363 15.8569L14.8982 7.83209C14.9605 7.76585 15.009 7.68792 15.0409 7.60282C15.0728 7.51772 15.0875 7.42714 15.0841 7.33634C15.0806 7.24554 15.0592 7.15631 15.021 7.07384C14.9828 6.99136 14.9286 6.91728 14.8616 6.85588L13.8463 5.92545H13.8428C13.8266 5.92221 13.8098 5.92221 13.7936 5.92545C13.7289 5.93891 13.67 5.9721 13.6251 6.02044C13.4336 6.23722 13.2008 6.41369 12.9402 6.53952C12.6796 6.66536 12.3965 6.73803 12.1074 6.7533C11.8184 6.76857 11.5292 6.72612 11.2567 6.62844C10.9843 6.53076 10.7341 6.37981 10.5208 6.18441C10.3075 5.98902 10.1353 5.7531 10.0144 5.49046C9.89341 5.22783 9.82611 4.94374 9.81641 4.65482C9.8067 4.3659 9.85477 4.07795 9.95782 3.8078C10.0609 3.53766 10.2168 3.29075 10.4165 3.08151C10.4606 3.0324 10.4882 2.97079 10.4956 2.90526C10.4976 2.88917 10.4964 2.87285 10.4922 2.8572V2.85376L9.65106 2.0847H9.64991ZM8.05136 1.45754C8.3437 1.16559 8.73761 0.997614 9.15094 0.988659C9.56427 0.979703 9.96511 1.13046 10.2699 1.40947L11.1098 2.17969C11.3608 2.40857 11.4307 2.72101 11.4078 2.98766C11.3837 3.25088 11.268 3.50838 11.0892 3.7018C10.9773 3.82368 10.8906 3.96638 10.8339 4.12175C10.7772 4.27712 10.7518 4.44211 10.7589 4.60731C10.7661 4.77251 10.8058 4.93468 10.8758 5.08456C10.9457 5.23444 11.0445 5.36909 11.1665 5.48083C11.2886 5.59257 11.4315 5.67921 11.587 5.73581C11.7426 5.7924 11.9078 5.81783 12.0732 5.81066C12.2386 5.80349 12.401 5.76384 12.5511 5.694C12.7012 5.62415 12.836 5.52547 12.9479 5.40358C13.1255 5.20903 13.3719 5.07169 13.632 5.02477C13.7787 4.99537 13.9302 5.00043 14.0746 5.03955C14.219 5.07868 14.3523 5.15081 14.4639 5.25023L15.4804 6.18066C15.6368 6.32406 15.7633 6.49707 15.8523 6.68965C15.9413 6.88222 15.9911 7.09053 15.9989 7.3025C16.0067 7.51446 15.9723 7.72586 15.8976 7.92443C15.823 8.123 15.7096 8.30479 15.564 8.45925L8.00208 16.4841C7.85484 16.6403 7.67768 16.7655 7.4811 16.8521C7.28452 16.9386 7.07253 16.9849 6.85771 16.9881C6.64288 16.9913 6.42961 16.9514 6.23053 16.8707C6.03145 16.79 5.85062 16.6702 5.69878 16.5184L4.66287 15.4838C4.26523 15.0867 4.36149 14.5145 4.58609 14.1792C4.74723 13.9371 4.81949 13.6467 4.7906 13.3574C4.76172 13.0681 4.63347 12.7977 4.42763 12.5922C4.22179 12.3866 3.95105 12.2585 3.66139 12.2297C3.37173 12.2008 3.08099 12.273 2.83856 12.4339C2.50051 12.6571 1.9287 12.7532 1.53107 12.3549L0.469943 11.2952C0.320954 11.1464 0.202768 10.9698 0.122135 10.7754C0.0415015 10.581 0 10.3726 0 10.1622C0 9.95176 0.0415015 9.7434 0.122135 9.549C0.202768 9.3546 0.320954 9.17796 0.469943 9.02918L8.05136 1.45869V1.45754Z"/>
</mask>
<path d="M9.64991 2.0847C9.51929 1.96502 9.34743 1.90035 9.17021 1.90419C8.99299 1.90803 8.82411 1.98008 8.6988 2.1053L1.11853 9.67694C1.05461 9.74071 1.0039 9.81644 0.969295 9.8998C0.934694 9.98316 0.916884 10.0725 0.916884 10.1628C0.916884 10.253 0.934694 10.3423 0.969295 10.4257C1.0039 10.5091 1.05461 10.5848 1.11853 10.6486L2.17966 11.7083C2.18309 11.7083 2.19112 11.7118 2.20716 11.7118C2.24154 11.7118 2.28737 11.6992 2.33092 11.6706C2.74972 11.3915 3.25241 11.266 3.75342 11.3155C4.25443 11.365 4.72279 11.5863 5.07879 11.9418C5.43478 12.2974 5.6564 12.7651 5.70593 13.2655C5.75545 13.7659 5.62982 14.2679 5.35042 14.6862C5.32526 14.7227 5.31096 14.7655 5.30917 14.8098C5.30917 14.8246 5.31146 14.8327 5.3126 14.8361L6.34852 15.8718C6.41361 15.937 6.49116 15.9884 6.57655 16.023C6.66193 16.0576 6.75342 16.0747 6.84556 16.0734C6.93771 16.072 7.02864 16.0521 7.11294 16.0149C7.19724 15.9777 7.2732 15.924 7.3363 15.8569L14.8982 7.83209C14.9605 7.76585 15.009 7.68792 15.0409 7.60282C15.0728 7.51772 15.0875 7.42714 15.0841 7.33634C15.0806 7.24554 15.0592 7.15631 15.021 7.07384C14.9828 6.99136 14.9286 6.91728 14.8616 6.85588L13.8463 5.92545H13.8428C13.8266 5.92221 13.8098 5.92221 13.7936 5.92545C13.7289 5.93891 13.67 5.9721 13.6251 6.02044C13.4336 6.23722 13.2008 6.41369 12.9402 6.53952C12.6796 6.66536 12.3965 6.73803 12.1074 6.7533C11.8184 6.76857 11.5292 6.72612 11.2567 6.62844C10.9843 6.53076 10.7341 6.37981 10.5208 6.18441C10.3075 5.98902 10.1353 5.7531 10.0144 5.49046C9.89341 5.22783 9.82611 4.94374 9.81641 4.65482C9.8067 4.3659 9.85477 4.07795 9.95782 3.8078C10.0609 3.53766 10.2168 3.29075 10.4165 3.08151C10.4606 3.0324 10.4882 2.97079 10.4956 2.90526C10.4976 2.88917 10.4964 2.87285 10.4922 2.8572V2.85376L9.65106 2.0847H9.64991ZM8.05136 1.45754C8.3437 1.16559 8.73761 0.997614 9.15094 0.988659C9.56427 0.979703 9.96511 1.13046 10.2699 1.40947L11.1098 2.17969C11.3608 2.40857 11.4307 2.72101 11.4078 2.98766C11.3837 3.25088 11.268 3.50838 11.0892 3.7018C10.9773 3.82368 10.8906 3.96638 10.8339 4.12175C10.7772 4.27712 10.7518 4.44211 10.7589 4.60731C10.7661 4.77251 10.8058 4.93468 10.8758 5.08456C10.9457 5.23444 11.0445 5.36909 11.1665 5.48083C11.2886 5.59257 11.4315 5.67921 11.587 5.73581C11.7426 5.7924 11.9078 5.81783 12.0732 5.81066C12.2386 5.80349 12.401 5.76384 12.5511 5.694C12.7012 5.62415 12.836 5.52547 12.9479 5.40358C13.1255 5.20903 13.3719 5.07169 13.632 5.02477C13.7787 4.99537 13.9302 5.00043 14.0746 5.03955C14.219 5.07868 14.3523 5.15081 14.4639 5.25023L15.4804 6.18066C15.6368 6.32406 15.7633 6.49707 15.8523 6.68965C15.9413 6.88222 15.9911 7.09053 15.9989 7.3025C16.0067 7.51446 15.9723 7.72586 15.8976 7.92443C15.823 8.123 15.7096 8.30479 15.564 8.45925L8.00208 16.4841C7.85484 16.6403 7.67768 16.7655 7.4811 16.8521C7.28452 16.9386 7.07253 16.9849 6.85771 16.9881C6.64288 16.9913 6.42961 16.9514 6.23053 16.8707C6.03145 16.79 5.85062 16.6702 5.69878 16.5184L4.66287 15.4838C4.26523 15.0867 4.36149 14.5145 4.58609 14.1792C4.74723 13.9371 4.81949 13.6467 4.7906 13.3574C4.76172 13.0681 4.63347 12.7977 4.42763 12.5922C4.22179 12.3866 3.95105 12.2585 3.66139 12.2297C3.37173 12.2008 3.08099 12.273 2.83856 12.4339C2.50051 12.6571 1.9287 12.7532 1.53107 12.3549L0.469943 11.2952C0.320954 11.1464 0.202768 10.9698 0.122135 10.7754C0.0415015 10.581 0 10.3726 0 10.1622C0 9.95176 0.0415015 9.7434 0.122135 9.549C0.202768 9.3546 0.320954 9.17796 0.469943 9.02918L8.05136 1.45869V1.45754Z" fill="white"/>
<path d="M9.64991 2.0847L8.29884 3.55935L8.87224 4.0847H9.64991V2.0847ZM8.6988 2.1053L10.1122 3.52032L10.1125 3.51999L8.6988 2.1053ZM1.11853 9.67694L2.53105 11.0928L2.53194 11.092L1.11853 9.67694ZM0.916884 10.1628H2.91688H0.916884ZM1.11853 10.6486L2.53184 9.23344L2.53105 9.23266L1.11853 10.6486ZM2.17966 11.7083L0.766356 13.1234L1.35199 13.7083H2.17966V11.7083ZM2.33092 11.6706L3.42918 13.3421L3.43988 13.335L2.33092 11.6706ZM5.35042 14.6862L6.99689 15.8216L7.00528 15.8094L7.01349 15.7971L5.35042 14.6862ZM5.30917 14.8098L3.3108 14.7289L3.30917 14.7693V14.8098H5.30917ZM5.3126 14.8361L3.41548 15.4693L3.56486 15.9168L3.89852 16.2504L5.3126 14.8361ZM6.34852 15.8718L7.76329 14.4582L7.7626 14.4575L6.34852 15.8718ZM7.3363 15.8569L5.88073 14.4853L5.87954 14.4866L7.3363 15.8569ZM14.8982 7.83209L16.3538 9.2037L16.3554 9.202L14.8982 7.83209ZM14.8616 6.85588L13.5103 8.33037L13.5111 8.33112L14.8616 6.85588ZM13.8463 5.92545L15.1975 4.45096L14.6241 3.92545H13.8463V5.92545ZM13.8428 5.92545L13.4524 7.88697L13.6457 7.92545H13.8428V5.92545ZM13.7936 5.92545L13.4031 3.96393L13.3945 3.96564L13.3859 3.96743L13.7936 5.92545ZM13.6251 6.02044L12.1603 4.65871L12.143 4.67731L12.1262 4.69634L13.6251 6.02044ZM10.4165 3.08151L11.8632 4.46246L11.8845 4.44021L11.905 4.41733L10.4165 3.08151ZM10.4956 2.90526L8.51033 2.663L8.50917 2.67251L8.5081 2.68203L10.4956 2.90526ZM10.4922 2.8572H8.49217V3.12296L8.56157 3.3795L10.4922 2.8572ZM10.4922 2.85376H12.4922V1.97246L11.8418 1.37775L10.4922 2.85376ZM9.65106 2.0847L11.0007 0.608687L10.4276 0.0846967H9.65106V2.0847ZM8.05136 1.45754L6.63808 0.0423915L6.05135 0.628338V1.45754H8.05136ZM10.2699 1.40947L11.6215 -0.0646173L11.6204 -0.0656314L10.2699 1.40947ZM11.1098 2.17969L9.75813 3.65378L9.76207 3.65738L11.1098 2.17969ZM11.4078 2.98766L13.3995 3.16975L13.4004 3.15893L11.4078 2.98766ZM11.0892 3.7018L9.62045 2.34428L9.61583 2.34932L11.0892 3.7018ZM12.9479 5.40358L14.4212 6.75607L14.4249 6.75204L12.9479 5.40358ZM13.632 5.02477L13.987 6.99301L14.0061 6.98956L14.0251 6.98575L13.632 5.02477ZM14.4639 5.25023L15.8144 3.77498L15.8041 3.76564L15.7938 3.75643L14.4639 5.25023ZM15.4804 6.18066L16.8316 4.70616L16.8308 4.70542L15.4804 6.18066ZM15.564 8.45925L17.0196 9.83086L17.0196 9.83084L15.564 8.45925ZM8.00208 16.4841L6.54651 15.1125L6.54647 15.1125L8.00208 16.4841ZM6.85771 16.9881L6.88751 18.9879L6.85771 16.9881ZM5.69878 16.5184L7.11281 15.104L7.11208 15.1033L5.69878 16.5184ZM4.66287 15.4838L6.07617 14.0687H6.07617L4.66287 15.4838ZM4.58609 14.1792L6.24779 15.2922L6.25107 15.2873L4.58609 14.1792ZM2.83856 12.4339L3.94044 14.103L3.94466 14.1002L2.83856 12.4339ZM1.53107 12.3549L2.9464 10.9418L2.94437 10.9398L1.53107 12.3549ZM0.469943 11.2952L1.88325 9.88005L1.88317 9.87998L0.469943 11.2952ZM0 10.1622H2H0ZM0.469943 9.02918L-0.943251 7.61395L-0.943286 7.61398L0.469943 9.02918ZM8.05136 1.45869L9.46455 2.87392L10.0514 2.28796V1.45869H8.05136ZM11.001 0.610046C10.4903 0.142123 9.81883 -0.110327 9.12691 -0.0953407L9.21352 3.90372C8.87604 3.91103 8.54832 3.78792 8.29884 3.55935L11.001 0.610046ZM9.12691 -0.0953407C8.43497 -0.0803543 7.77507 0.200938 7.28507 0.690602L10.1125 3.51999C9.87314 3.75922 9.55101 3.89641 9.21352 3.90372L9.12691 -0.0953407ZM7.28539 0.690278L-0.294874 8.26192L2.53194 11.092L10.1122 3.52032L7.28539 0.690278ZM-0.293979 8.26103C-0.543979 8.51043 -0.742445 8.80673 -0.877902 9.13308L2.81649 10.6665C2.75024 10.8261 2.6532 10.971 2.53105 11.0928L-0.293979 8.26103ZM-0.877902 9.13308C-1.01336 9.45942 -1.08312 9.80932 -1.08312 10.1628H2.91688C2.91688 10.3357 2.88275 10.5069 2.81649 10.6665L-0.877902 9.13308ZM-1.08312 10.1628C-1.08312 10.5162 -1.01336 10.8661 -0.877902 11.1924L2.81649 9.65898C2.88275 9.81861 2.91688 9.9898 2.91688 10.1628H-1.08312ZM-0.877902 11.1924C-0.742445 11.5188 -0.543979 11.8151 -0.293979 12.0645L2.53105 9.23266C2.6532 9.35451 2.75024 9.49936 2.81649 9.65898L-0.877902 11.1924ZM-0.294767 12.0637L0.766356 13.1234L3.59296 10.2932L2.53184 9.23344L-0.294767 12.0637ZM2.17966 13.7083C2.13842 13.7083 2.10114 13.707 2.06862 13.7052C2.03606 13.7034 2.00677 13.701 1.98137 13.6984C1.95593 13.6959 1.93314 13.6931 1.91352 13.6905C1.89386 13.6878 1.87634 13.6852 1.8614 13.6827C1.8322 13.678 1.80848 13.6735 1.7932 13.6705C1.77777 13.6674 1.76568 13.6648 1.75976 13.6635C1.75408 13.6623 1.74938 13.6613 1.75041 13.6615C1.75042 13.6615 1.75043 13.6615 1.75046 13.6615C1.75048 13.6615 1.75052 13.6615 1.75057 13.6615C1.75066 13.6615 1.75081 13.6616 1.75098 13.6616C1.75132 13.6617 1.75187 13.6618 1.75253 13.662C1.75385 13.6622 1.75587 13.6627 1.75832 13.6632C1.76827 13.6654 1.78639 13.6693 1.80908 13.6737C1.83207 13.6781 1.85912 13.683 1.88957 13.6876C1.92001 13.6923 1.9527 13.6966 1.98746 13.7003C2.05764 13.7076 2.13098 13.7118 2.20716 13.7118V9.71176C2.27532 9.71176 2.34164 9.71545 2.4057 9.72218C2.4374 9.72552 2.46724 9.72946 2.49506 9.73372C2.52288 9.73798 2.54751 9.74238 2.56828 9.7464C2.58876 9.75035 2.60484 9.75382 2.61296 9.75559C2.61645 9.75636 2.61954 9.75705 2.61824 9.75676C2.61804 9.75671 2.6166 9.75639 2.61487 9.75601C2.61307 9.75561 2.61014 9.75497 2.60654 9.75419C2.59988 9.75275 2.58708 9.75 2.57099 9.74681C2.55506 9.74366 2.53072 9.73902 2.50093 9.7342C2.4857 9.73173 2.4679 9.72903 2.44798 9.72634C2.42808 9.72366 2.40503 9.72085 2.37934 9.71829C2.35369 9.71572 2.32415 9.71327 2.29136 9.71144C2.25861 9.70961 2.22111 9.70832 2.17966 9.70832V13.7083ZM2.20716 13.7118C2.67641 13.7118 3.0988 13.5591 3.42916 13.342L1.23267 9.99907C1.36586 9.91156 1.50989 9.84339 1.66096 9.79547C1.8066 9.74928 1.9911 9.71176 2.20716 9.71176V13.7118ZM3.43988 13.335C3.47407 13.3122 3.51546 13.3017 3.55693 13.3058L3.94992 9.32518C2.98937 9.23035 2.02537 9.47086 1.22196 10.0062L3.43988 13.335ZM3.55693 13.3058C3.59838 13.3099 3.63669 13.3282 3.66548 13.357L6.49209 10.5267C5.8089 9.84441 4.91048 9.42002 3.94992 9.32518L3.55693 13.3058ZM3.66548 13.357C3.69423 13.3857 3.71175 13.423 3.71565 13.4625L7.6962 13.0685C7.60106 12.1072 7.17533 11.2091 6.49209 10.5267L3.66548 13.357ZM3.71565 13.4625C3.71956 13.502 3.7097 13.5418 3.68735 13.5752L7.01349 15.7971C7.54995 14.994 7.79135 14.0298 7.6962 13.0685L3.71565 13.4625ZM3.70395 13.5508C3.46429 13.8983 3.32788 14.3068 3.3108 14.7289L7.30753 14.8906C7.29403 15.2242 7.18623 15.547 6.99689 15.8216L3.70395 13.5508ZM3.30917 14.8098C3.30917 15.0514 3.34993 15.2729 3.41548 15.4693L7.20973 14.2029C7.2358 14.281 7.26361 14.3808 7.28317 14.498C7.3017 14.609 7.30917 14.7137 7.30917 14.8098H3.30917ZM3.89852 16.2504L4.93443 17.2862L7.7626 14.4575L6.72669 13.4217L3.89852 16.2504ZM4.93374 17.2855C5.18832 17.5402 5.49144 17.7412 5.825 17.8764L7.32809 14.1696C7.49088 14.2356 7.63891 14.3337 7.76329 14.4582L4.93374 17.2855ZM5.825 17.8764C6.15856 18.0117 6.51586 18.0786 6.87568 18.0731L6.81544 14.0736C6.99098 14.0709 7.1653 14.1036 7.32809 14.1696L5.825 17.8764ZM6.87568 18.0731C7.2355 18.0677 7.59063 17.9901 7.91999 17.8449L6.30589 14.185C6.46664 14.1141 6.63992 14.0762 6.81544 14.0736L6.87568 18.0731ZM7.91999 17.8449C8.24935 17.6996 8.54628 17.4896 8.79306 17.2273L5.87954 14.4866C6.00012 14.3584 6.14513 14.2559 6.30589 14.185L7.91999 17.8449ZM8.79187 17.2285L16.3538 9.2037L13.4427 6.46048L5.88073 14.4853L8.79187 17.2285ZM16.3554 9.202C16.599 8.9429 16.7888 8.63796 16.9137 8.30479L13.1681 6.90085C13.2292 6.73787 13.322 6.58879 13.4411 6.46219L16.3554 9.202ZM16.9137 8.30479C17.0385 7.97161 17.096 7.61691 17.0826 7.26127L13.0855 7.41141C13.0789 7.23738 13.107 7.06383 13.1681 6.90085L16.9137 8.30479ZM17.0826 7.26127C17.0693 6.90563 16.9854 6.55625 16.8359 6.2334L13.2062 7.91427C13.1331 7.75637 13.092 7.58544 13.0855 7.41141L17.0826 7.26127ZM16.8359 6.2334C16.6864 5.91055 16.4743 5.62073 16.212 5.38065L13.5111 8.33112C13.383 8.21383 13.2793 8.07218 13.2062 7.91427L16.8359 6.2334ZM16.2128 5.3814L15.1975 4.45096L12.495 7.39994L13.5103 8.33037L16.2128 5.3814ZM13.8463 3.92545H13.8428V7.92545H13.8463V3.92545ZM14.2333 3.96393C13.9592 3.90939 13.6772 3.90939 13.4031 3.96393L14.184 7.88697C13.9425 7.93504 13.6939 7.93504 13.4524 7.88697L14.2333 3.96393ZM13.3859 3.96743C12.9159 4.06529 12.4875 4.3067 12.1603 4.65871L15.0899 7.38217C14.8526 7.63751 14.5419 7.81253 14.2012 7.88347L13.3859 3.96743ZM12.1262 4.69634C12.1108 4.71381 12.0919 4.72819 12.0705 4.7385L13.8098 8.34054C14.3097 8.09918 14.7565 7.76062 15.124 7.34454L12.1262 4.69634ZM12.0705 4.7385C12.0491 4.74882 12.0258 4.75482 12.0019 4.75609L12.2129 8.75052C12.7671 8.72124 13.31 8.58189 13.8098 8.34054L12.0705 4.7385ZM12.0019 4.75609C11.978 4.75735 11.9542 4.75383 11.9318 4.7458L10.5817 8.51108C11.1042 8.69841 11.6587 8.77979 12.2129 8.75052L12.0019 4.75609ZM11.9318 4.7458C11.9094 4.73777 11.889 4.72541 11.8717 4.70959L9.16991 7.65924C9.57928 8.03421 10.0593 8.32376 10.5817 8.51108L11.9318 4.7458ZM11.8717 4.70959C11.8544 4.69377 11.8406 4.6748 11.831 4.65389L8.19772 6.32704C8.42999 6.8314 8.76054 7.28427 9.16991 7.65924L11.8717 4.70959ZM11.831 4.65389C11.8214 4.63299 11.816 4.61048 11.8153 4.58766L7.81753 4.72198C7.83618 5.277 7.96546 5.82266 8.19772 6.32704L11.831 4.65389ZM11.8153 4.58766C11.8145 4.56484 11.8183 4.54205 11.8265 4.52059L8.08915 3.09501C7.89124 3.61384 7.79888 4.16696 7.81753 4.72198L11.8153 4.58766ZM11.8265 4.52059C11.8347 4.49913 11.8471 4.47935 11.8632 4.46246L8.96982 1.70056C8.58649 2.10214 8.28705 2.57618 8.08915 3.09501L11.8265 4.52059ZM11.905 4.41733C12.227 4.05854 12.4292 3.60805 12.4831 3.1285L8.5081 2.68203C8.54724 2.33354 8.6942 2.00627 8.92805 1.74569L11.905 4.41733ZM12.4809 3.14753C12.5141 2.87539 12.4943 2.59945 12.4228 2.33489L8.56157 3.3795C8.49847 3.14625 8.48105 2.90295 8.51033 2.663L12.4809 3.14753ZM12.4922 2.8572V2.85376H8.49217V2.8572H12.4922ZM11.8418 1.37775L11.0007 0.608687L8.30147 3.56071L9.14258 4.32977L11.8418 1.37775ZM9.65106 0.0846967H9.64991V4.0847H9.65106V0.0846967ZM9.46463 2.87269C9.39233 2.9449 9.29542 2.986 9.19427 2.98819L9.10762 -1.01087C8.1798 -0.99077 7.29507 -0.613729 6.63808 0.0423915L9.46463 2.87269ZM9.19427 2.98819C9.09312 2.99038 8.99458 2.95352 8.91928 2.88458L11.6204 -0.0656314C10.9356 -0.692614 10.0354 -1.03097 9.10762 -1.01087L9.19427 2.98819ZM8.91817 2.88357L9.75813 3.65378L12.4615 0.705594L11.6215 -0.0646168L8.91817 2.88357ZM9.76207 3.65738C9.43801 3.36182 9.39967 2.99591 9.4151 2.8164L13.4004 3.15893C13.4617 2.44611 13.2835 1.45533 12.4576 0.701995L9.76207 3.65738ZM9.41606 2.80558C9.43255 2.62526 9.50351 2.47082 9.62046 2.34429L12.5579 5.0593C13.0324 4.54595 13.3348 3.87651 13.3995 3.16975L9.41606 2.80558ZM9.61583 2.34932C9.32631 2.66471 9.1017 3.03411 8.95495 3.43648L12.7128 4.80702C12.6794 4.89865 12.6283 4.98265 12.5626 5.05427L9.61583 2.34932ZM8.95495 3.43648C8.8082 3.83886 8.74222 4.26624 8.76083 4.69419L12.7571 4.52044C12.7613 4.61799 12.7462 4.71538 12.7128 4.80702L8.95495 3.43648ZM8.76083 4.69419C8.77943 5.12214 8.88226 5.54216 9.06335 5.93026L12.6881 4.23886C12.7294 4.3272 12.7528 4.42289 12.7571 4.52044L8.76083 4.69419ZM9.06335 5.93026C9.24444 6.31835 9.50022 6.66685 9.81596 6.95593L12.5171 4.00573C12.5888 4.07133 12.6469 4.15052 12.6881 4.23886L9.06335 5.93026ZM9.81596 6.95593C10.1317 7.24501 10.5012 7.46903 10.9033 7.61531L12.2707 3.8563C12.3617 3.8894 12.4455 3.94014 12.5171 4.00573L9.81596 6.95593ZM10.9033 7.61531C11.3055 7.76159 11.7324 7.82732 12.1599 7.80878L11.9866 3.81254C12.0832 3.80835 12.1798 3.8232 12.2707 3.8563L10.9033 7.61531ZM12.1599 7.80878C12.5873 7.79024 13.007 7.6878 13.395 7.50723L11.7072 3.88077C11.795 3.83989 11.8899 3.81673 11.9866 3.81254L12.1599 7.80878ZM13.395 7.50723C13.783 7.32666 14.1317 7.07145 14.4212 6.75606L11.4745 4.05111C11.5402 3.97949 11.6193 3.92165 11.7072 3.88077L13.395 7.50723ZM14.4249 6.75204C14.31 6.87788 14.1637 6.96114 13.987 6.99301L13.277 3.05654C12.5801 3.18225 11.9409 3.54018 11.4708 4.05513L14.4249 6.75204ZM14.0251 6.98575C13.8682 7.01722 13.706 7.01181 13.5514 6.96993L14.5977 3.10918C14.1544 2.98904 13.6892 2.97351 13.2388 3.06379L14.0251 6.98575ZM13.5514 6.96993C13.3969 6.92803 13.2539 6.85076 13.1341 6.74403L15.7938 3.75643C15.4506 3.45085 15.041 3.22933 14.5977 3.10918L13.5514 6.96993ZM13.1135 6.72547L14.1299 7.65591L16.8308 4.70542L15.8144 3.77498L13.1135 6.72547ZM14.1291 7.65516C14.0904 7.61971 14.059 7.57679 14.0368 7.52882L17.6677 5.85047C17.4675 5.41735 17.1833 5.02842 16.8316 4.70616L14.1291 7.65516ZM14.0368 7.52882C14.0147 7.48085 14.0022 7.42885 14.0003 7.37587L17.9976 7.22912C17.9801 6.75222 17.8679 6.2836 17.6677 5.85047L14.0368 7.52882ZM14.0003 7.37587C13.9983 7.32289 14.0069 7.27009 14.0256 7.22058L17.7697 8.62828C17.9376 8.18162 18.0151 7.70604 17.9976 7.22912L14.0003 7.37587ZM14.0256 7.22058C14.0442 7.17107 14.0724 7.12591 14.1084 7.08766L17.0196 9.83084C17.3467 9.48366 17.6017 9.07493 17.7697 8.62828L14.0256 7.22058ZM14.1084 7.08764L6.54651 15.1125L9.45765 17.8557L17.0196 9.83086L14.1084 7.08764ZM6.54647 15.1125C6.58293 15.0738 6.62665 15.043 6.67496 15.0217L8.28723 18.6824C8.72871 18.488 9.12676 18.2069 9.45769 17.8557L6.54647 15.1125ZM6.67496 15.0217C6.72328 15.0004 6.77528 14.9891 6.8279 14.9883L6.88751 18.9879C7.36978 18.9807 7.84576 18.8768 8.28723 18.6824L6.67496 15.0217ZM6.8279 14.9883C6.88052 14.9875 6.93282 14.9973 6.98173 15.0171L5.47933 18.7243C5.92639 18.9054 6.40525 18.9951 6.88751 18.9879L6.8279 14.9883ZM6.98173 15.0171C7.03063 15.037 7.07523 15.0665 7.11281 15.104L4.28475 17.9328C4.62601 18.274 5.03226 18.5431 5.47933 18.7243L6.98173 15.0171ZM7.11208 15.1033L6.07617 14.0687L3.24957 16.899L4.28548 17.9335L7.11208 15.1033ZM6.07617 14.0687C6.31025 14.3025 6.39337 14.6041 6.39103 14.8291C6.38912 15.013 6.33519 15.1617 6.24778 15.2922L2.9244 13.0662C2.38945 13.8648 1.92922 15.5803 3.24957 16.899L6.07617 14.0687ZM6.25107 15.2873C6.66827 14.6604 6.85555 13.9083 6.78071 13.1587L2.8005 13.5561C2.78342 13.3851 2.82618 13.2137 2.92111 13.0711L6.25107 15.2873ZM6.78071 13.1587C6.70586 12.4091 6.3736 11.709 5.84093 11.177L3.01433 14.0073C2.89333 13.8865 2.81757 13.7271 2.8005 13.5561L6.78071 13.1587ZM5.84093 11.177C5.30831 10.6451 4.60819 10.3141 3.85959 10.2395L3.46318 14.2198C3.29392 14.203 3.13527 14.1281 3.01433 14.0073L5.84093 11.177ZM3.85959 10.2395C3.11102 10.1649 2.35946 10.3514 1.73247 10.7676L3.94466 14.1002C3.80253 14.1945 3.63243 14.2367 3.46318 14.2198L3.85959 10.2395ZM1.73669 10.7648C1.86137 10.6825 2.00598 10.6292 2.18889 10.6275C2.41285 10.6255 2.71353 10.7086 2.9464 10.9418L0.11573 13.768C1.43505 15.0894 3.14737 14.6265 3.94044 14.103L1.73669 10.7648ZM2.94437 10.9398L1.88325 9.88005L-0.943358 12.7103L0.117764 13.7701L2.94437 10.9398ZM1.88317 9.87998C1.92004 9.9168 1.94943 9.96066 1.96952 10.0091L-1.72526 11.5416C-1.54389 11.9789 -1.27814 12.376 -0.943286 12.7104L1.88317 9.87998ZM1.96952 10.0091C1.98962 10.0576 2 10.1096 2 10.1622H-2C-2 10.6356 -1.90662 11.1044 -1.72526 11.5416L1.96952 10.0091ZM2 10.1622C2 10.2148 1.98962 10.2668 1.96952 10.3153L-1.72526 8.78274C-1.90662 9.22 -2 9.68874 -2 10.1622H2ZM1.96952 10.3153C1.94943 10.3637 1.92004 10.4076 1.88317 10.4444L-0.943286 7.61398C-1.27814 7.94837 -1.54389 8.34549 -1.72526 8.78274L1.96952 10.3153ZM1.88314 10.4444L9.46455 2.87392L6.63816 0.0434539L-0.943251 7.61395L1.88314 10.4444ZM10.0514 1.45869V1.45754H6.05135V1.45869H10.0514Z" fill="white" mask="url(#path-1-inside-1_701_44877)"/>
</svg>
