<svg width="18" height="18" viewBox="0 0 18 18" fill="none" xmlns="http://www.w3.org/2000/svg">
<path d="M8.13266 9.17881C8.13266 9.56799 8.46367 9.88349 8.87199 9.88349C9.28032 9.88349 9.61133 9.56799 9.61133 9.17881C9.61133 8.78962 9.28032 8.47412 8.87199 8.47412C8.46367 8.47412 8.13266 8.78962 8.13266 9.17881Z" stroke="white" stroke-linecap="round" stroke-linejoin="round"/>
<path d="M13.3084 9.17881C13.3084 9.56799 13.6394 9.88349 14.0478 9.88349C14.4561 9.88349 14.7871 9.56799 14.7871 9.17881C14.7871 8.78962 14.4561 8.47412 14.0478 8.47412C13.6394 8.47412 13.3084 8.78962 13.3084 9.17881Z" stroke="white" stroke-linecap="round" stroke-linejoin="round"/>
<path d="M2.95785 9.17881C2.95785 9.56799 3.28886 9.88349 3.69719 9.88349C4.10551 9.88349 4.43652 9.56799 4.43652 9.17881C4.43652 8.78962 4.10551 8.47412 3.69719 8.47412C3.28886 8.47412 2.95785 8.78962 2.95785 9.17881Z" stroke="white" stroke-linecap="round" stroke-linejoin="round"/>
</svg>
