<svg width="18" height="18" viewBox="0 0 18 18" fill="none" xmlns="http://www.w3.org/2000/svg">
<path d="M15.6815 11.7754C15.2111 12.8356 14.4755 13.7699 13.5388 14.4964C12.6021 15.223 11.493 15.7199 10.3083 15.9435C9.12363 16.1671 7.89952 16.1108 6.743 15.7793C5.58647 15.4479 4.53274 14.8514 3.67392 14.0422C2.8151 13.2329 2.17735 12.2354 1.81642 11.137C1.45549 10.0385 1.38238 8.87249 1.60346 7.74087C1.82455 6.60925 2.33311 5.54648 3.08469 4.64547C3.83626 3.74446 4.80796 3.03265 5.91483 2.57227" stroke="white" stroke-linecap="round" stroke-linejoin="round"/>
<path d="M16.2654 9.03415C16.2654 8.10874 16.0742 7.1924 15.7027 6.33744C15.3311 5.48248 14.7865 4.70564 14.1 4.05128C13.4134 3.39692 12.5984 2.87785 11.7014 2.52371C10.8044 2.16958 9.84298 1.9873 8.87207 1.9873V9.03415H16.2654Z" stroke="white" stroke-linecap="round" stroke-linejoin="round"/>
</svg>
