<svg width="13" height="12" viewBox="0 0 13 12" fill="none" xmlns="http://www.w3.org/2000/svg">
<path fill-rule="evenodd" clip-rule="evenodd" d="M12.5674 6C12.5674 9.3135 9.88088 12 6.56738 12C3.25388 12 0.567383 9.3135 0.567383 6C0.567383 2.6865 3.25388 0 6.56738 0C9.88088 0 12.5674 2.6865 12.5674 6ZM6.78238 4.4295C6.19888 4.672 5.03238 5.1745 3.28338 5.9365C2.99938 6.0495 2.85038 6.16 2.83688 6.268C2.81388 6.451 3.04288 6.523 3.35388 6.6205C3.39638 6.634 3.44038 6.6475 3.48538 6.6625C3.79188 6.762 4.20388 6.8785 4.41788 6.883C4.61238 6.887 4.82938 6.807 5.06888 6.643C6.70288 5.5395 7.54638 4.982 7.59938 4.97C7.63688 4.9615 7.68888 4.9505 7.72388 4.982C7.75888 5.013 7.75538 5.072 7.75188 5.088C7.72888 5.1845 6.83188 6.019 6.36688 6.451C6.22188 6.5855 6.11938 6.681 6.09838 6.703C6.05138 6.7515 6.00338 6.798 5.95738 6.8425C5.67238 7.1165 5.45938 7.3225 5.96938 7.6585C6.21438 7.82 6.41038 7.9535 6.60588 8.0865C6.81938 8.232 7.03238 8.377 7.30838 8.558C7.37838 8.604 7.44538 8.6515 7.51088 8.698C7.75938 8.8755 7.98288 9.0345 8.25888 9.0095C8.41888 8.9945 8.58488 8.844 8.66888 8.3945C8.86738 7.3315 9.25838 5.0295 9.34888 4.0805C9.35439 4.00171 9.35104 3.92254 9.33888 3.8445C9.33161 3.78147 9.30091 3.72347 9.25288 3.682C9.18138 3.6235 9.07038 3.611 9.02038 3.612C8.79488 3.616 8.44888 3.7365 6.78238 4.4295Z" fill="#A3A3A6"/>
</svg>
