<svg width="16" height="16" viewBox="0 0 16 16" fill="none" xmlns="http://www.w3.org/2000/svg">
<path fill-rule="evenodd" clip-rule="evenodd" d="M8 16C3.5815 16 0 12.4185 0 8C0 3.5815 3.5815 0 8 0C12.4185 0 16 3.5815 16 8C16 12.4185 12.4185 16 8 16ZM8.961 6.8965V5.7135H11.668V3.9095H4.2975V5.7135H7.0045V6.896C4.8045 6.997 3.15 7.433 3.15 7.955C3.15 8.477 4.8045 8.9125 7.0045 9.014V12.805H8.961V9.013C11.1575 8.912 12.808 8.4765 12.808 7.955C12.808 7.4335 11.1575 6.998 8.961 6.8965ZM8.961 8.6915C8.906 8.6955 8.6225 8.7115 7.99 8.7115C7.485 8.7115 7.1295 8.6965 7.0045 8.6905V8.692C5.0605 8.6065 3.6095 8.268 3.6095 7.863C3.6095 7.4585 5.0605 7.12 7.0045 7.033V8.355C7.1315 8.364 7.4955 8.3855 7.9985 8.3855C8.602 8.3855 8.9045 8.3605 8.961 8.3555V7.034C10.901 7.1205 12.3485 7.459 12.3485 7.863C12.3485 8.268 10.901 8.6055 8.961 8.6915Z" fill="#06C270"/>
</svg>
