<svg width="14" height="12" viewBox="0 0 14 12" fill="none" xmlns="http://www.w3.org/2000/svg">
<path d="M13.5674 1.42342C13.0893 1.66396 12.5758 1.82649 12.0358 1.89995C12.5929 1.52145 13.0097 0.925741 13.2084 0.223974C12.685 0.576974 12.1122 0.825449 11.5148 0.958594C11.1131 0.471576 10.5811 0.148773 10.0012 0.0403016C9.42142 -0.06817 8.82627 0.0437586 8.3082 0.35871C7.79014 0.673661 7.37814 1.17401 7.13618 1.78209C6.89421 2.39016 6.83581 3.07193 6.97005 3.72154C5.90954 3.66108 4.87207 3.34809 3.92498 2.80288C2.97789 2.25767 2.14234 1.49244 1.47256 0.556828C1.24355 1.0054 1.11186 1.52549 1.11186 2.07938C1.11161 2.578 1.21975 3.069 1.42669 3.50879C1.63363 3.94858 1.93297 4.32357 2.29816 4.60049C1.87464 4.58519 1.46047 4.45524 1.09011 4.22148V4.26048C1.09007 4.95983 1.30311 5.63765 1.69309 6.17894C2.08308 6.72023 2.62598 7.09165 3.22967 7.23017C2.83679 7.3509 2.42488 7.36869 2.02506 7.28218C2.19539 7.88392 2.52717 8.41013 2.97396 8.78712C3.42075 9.16412 3.96018 9.37303 4.51674 9.38462C3.57196 10.2268 2.40516 10.6836 1.20404 10.6816C0.991278 10.6816 0.778692 10.6675 0.567383 10.6393C1.78658 11.5294 3.20582 12.0018 4.65529 12C9.56192 12 12.2443 7.38554 12.2443 3.38349C12.2443 3.25347 12.2414 3.12215 12.2362 2.99213C12.758 2.56369 13.2084 2.03315 13.5662 1.42537L13.5674 1.42342Z" fill="#A3A3A6"/>
</svg>
